inDegrees=no
num_controls=7
num_derivatives=13
num_iterations=32
num_multipliers=7
num_parameters=0
num_slacks=7
num_states=26
objective=0.426625
objective_accelerations=0.057859
objective_balance=0.001117
objective_effort=0.015473
objective_height=0.346130
objective_ligament=0.006046
solver_duration=468.781378
status=Solve_Succeeded
success=true
DataType=double
version=3
OpenSimVersion=4.5
endheader
time	/jointset/ground_pelvis/pelvis_tilt/value	/jointset/ground_pelvis/pelvis_tx/value	/jointset/ground_pelvis/pelvis_ty/value	/jointset/hip_l/hip_flexion_l/value	/jointset/hip_l/hip_adduction_l/value	/jointset/hip_l/hip_rotation_l/value	/jointset/back/lumbar_extension/value	/jointset/patellofemoral_l/patellar_flexion_l/value	/jointset/knee_l/knee_flexion_l/value	/jointset/knee_l/knee_adduction_l/value	/jointset/knee_l/knee_rotation_l/value	/jointset/ankle_l/ankle_angle_l/value	/jointset/subtalar_l/subtalar_angle_l/value	/jointset/ground_pelvis/pelvis_tilt/speed	/jointset/ground_pelvis/pelvis_tx/speed	/jointset/ground_pelvis/pelvis_ty/speed	/jointset/hip_l/hip_flexion_l/speed	/jointset/hip_l/hip_adduction_l/speed	/jointset/hip_l/hip_rotation_l/speed	/jointset/back/lumbar_extension/speed	/jointset/patellofemoral_l/patellar_flexion_l/speed	/jointset/knee_l/knee_flexion_l/speed	/jointset/knee_l/knee_adduction_l/speed	/jointset/knee_l/knee_rotation_l/speed	/jointset/ankle_l/ankle_angle_l/speed	/jointset/subtalar_l/subtalar_angle_l/speed	/forceset/tau_hip_flexion_l	/forceset/tau_hip_adduction_l	/forceset/tau_hip_rotation_l	/forceset/tau_knee_flexion_l	/forceset/tau_ankle_angle_l	/forceset/tau_subtalar_angle_l	/forceset/tau_lumbar_extension	lambda_cid13_p0	lambda_cid13_p1	lambda_cid13_p2	lambda_cid13_p3	lambda_cid13_p4	lambda_cid13_p5	lambda_cid14_p0	/jointset/ground_pelvis/pelvis_tilt/accel	/jointset/ground_pelvis/pelvis_tx/accel	/jointset/ground_pelvis/pelvis_ty/accel	/jointset/hip_l/hip_flexion_l/accel	/jointset/hip_l/hip_adduction_l/accel	/jointset/hip_l/hip_rotation_l/accel	/jointset/back/lumbar_extension/accel	/jointset/patellofemoral_l/patellar_flexion_l/accel	/jointset/knee_l/knee_flexion_l/accel	/jointset/knee_l/knee_adduction_l/accel	/jointset/knee_l/knee_rotation_l/accel	/jointset/ankle_l/ankle_angle_l/accel	/jointset/subtalar_l/subtalar_angle_l/accel	gamma_cid13_p0	gamma_cid13_p1	gamma_cid13_p2	gamma_cid13_p3	gamma_cid13_p4	gamma_cid13_p5	gamma_cid14_p0
1.5	-0.3468706564121554	0.05981128232493675	0.7918573224119809	0.9977242795899145	-0.3638349771140723	-0.04125830670849291	-0.3294755427565612	0.8165230616441689	0.8165230616441778	-0.05208601933957442	-0.1699665305356711	0.2829512427024793	0.1506310825859709	0.4869763021201766	0.2656606833625872	0.4880500122798155	-2.297379041861629	-0.005914216142714406	-0.5952095672887087	0.6054015196768698	-2.195633246048989	-2.195633246048978	-0.3050267813086665	0.0558848110232202	-0.5597509898571267	-0.2265311019536914	-0.1366629393964522	0.0829610939425781	0.004163821605008717	-0.1194998277750542	-0.04591871883826386	-0.02022934946438561	0.1286059193702404	-40.77365109058547	16.7233444047507	-3.859324442329228	1.370259155297874	-429.4078609014161	-19.78086183496578	-10.32528733544807	0.5850626555104211	0.4812073699358324	-0.7722474731885223	-1.16589524492615	0.3400191623737033	-0.4074343800405666	1.614503290919759	-1.140676263871183	-1.140676263871129	-0.08492372170235168	0.4474096372896447	-0.6150020990180936	0.4503731258500694	3.578557365551756e-07	1.837218974572306e-06	-4.637667940132994e-06	2.204313075200078e-08	1.070701249448448e-06	2.289572172533197e-06	6.933242937736719e-07
1.51	-0.3419719372214448	0.06249155360460654	0.7966982735105532	0.9746941593587493	-0.3638783818635558	-0.04723376479971807	-0.323342485340953	0.7945119043990552	0.7945119044000947	-0.05514079960642888	-0.169389883386434	0.277323253887095	0.148386668203664	0.4926730636060638	0.2703454927324006	0.4800383646922128	-2.308321707746332	-0.00275801906768151	-0.5997234862252752	0.6211116692618178	-2.206309766617033	-2.206309766617024	-0.3059799357948641	0.05951940753894228	-0.5657659019611461	-0.22232112613781	-0.1323222611811221	0.08141229411635072	0.005243861149856187	-0.1164930872097314	-0.04599981369012324	-0.02127427213948633	0.1249710521236811	-40.67591190910115	16.94680924068659	-3.651389575659941	1.664148663191256	-426.2859451681704	-19.78101137682246	-11.22469457178555	0.5478380988759139	0.4550458437889259	-0.8308434247967124	-1.009933626058027	0.3042467695539569	-0.449136922776637	1.534526664767203	-0.9879710293052011	-0.9879710293056549	-0.1073106780115209	0.3327567269331433	-0.5823928976810602	0.4100897225830669	1.607725956378611e-07	4.181187653328816e-06	-1.753949835015183e-06	4.698207377375532e-07	5.501190794437647e-07	2.572614283868337e-06	5.542315512621005e-07
1.52	-0.3370190793751887	0.0652172586026297	0.8014560641286003	0.9515643161955817	-0.3638900592845531	-0.05324951533434927	-0.3170552752549867	0.7724026157339794	0.7724026157338992	-0.05820647129744223	-0.1687746358555271	0.2716375845242126	0.1461851095621394	0.497804033241647	0.2747474270332589	0.4714179161747995	-2.317323628263873	0.0004312495864653299	-0.6032680560540618	0.6362320537461699	-2.215259530226419	-2.215259530226412	-0.3072050649181788	0.06360488678333184	-0.5712870993286291	-0.2179599537968349	-0.1279815829646952	0.07986349429196891	0.006323900672431194	-0.1134863466434418	-0.04608090854117007	-0.02231919481119514	0.1213361848777524	-40.57633763581436	17.16731249226817	-3.439965547471362	1.943167785132403	-423.1286744953583	-19.81560233360441	-12.12079337550577	0.4719042854501656	0.4246323561449287	-0.8940076591506316	-0.7777461714936771	0.3466334781977257	-0.2135645584847955	1.496550270800494	-0.7953248721396839	-0.7953248721396838	-0.1393186491256707	0.5375861830227778	-0.5162591517107037	0.4806124308687942	7.536425571810316e-08	5.293287240937918e-06	-5.386248599814656e-07	6.735115195254855e-07	3.404852027520252e-07	2.766861283055496e-06	5.039073146241031e-07
1.53	-0.3320175266960423	0.06798560784566846	0.8061246982945274	0.9283537944306568	-0.3638701181281449	-0.05929473709875607	-0.310619945187711	0.7502125299751025	0.7502125299748417	-0.06128723342774368	-0.1681158853666418	0.2658992704506049	0.1440273676761391	0.5024214174108803	0.2788771435074153	0.4622146701961893	-2.324465860213245	0.003546092023924197	-0.6056401019287344	0.6507336944655079	-2.222445447716925	-2.222445447716929	-0.3089917053063972	0.06818877021575109	-0.5762727146834667	-0.2135761032085833	-0.1236838518705391	0.07806262078284008	0.007338941208081838	-0.1107231486936952	-0.04594786236958254	-0.02341059688791804	0.1177537631199642	-40.42550875943694	17.40854542192005	-3.242719648342224	2.147995233806819	-420.2326075288553	-19.87463371324052	-13.01261625136075	0.4439189877877277	0.4004671962036472	-0.9475149139552318	-0.6352021655461177	0.2919911709760922	-0.2280538853039401	1.411931186090939	-0.633513399493122	-0.6335133994947743	-0.2042892604604409	0.4251511967754573	-0.4740735436129519	0.4184991966543902	1.086103918582477e-07	5.096525919202913e-06	-1.095967585662079e-06	6.178600495409492e-07	4.612338877052843e-07	2.866763475585426e-06	5.478996154767771e-07
1.54	-0.3269723474741705	0.07079391943407951	0.8106984936313213	0.9050813022544574	-0.3638194122384762	-0.06535948517861187	-0.3040426066705219	0.7279599273987042	0.7279599273987221	-0.06438705246625154	-0.1674100236892626	0.2601142280602211	0.141913709860788	0.5065293417852607	0.2827398961077131	0.4524501503481565	-2.32971771051808	0.006584196239680895	-0.607173319137264	0.6646337437284747	-2.227762893686899	-2.227762893686914	-0.3110164467662832	0.07302712458515638	-0.5806327626879998	-0.2091431396662928	-0.1193861207764927	0.07626174727347028	0.008353981747502242	-0.1079599507440928	-0.04581481619810481	-0.02450199896508944	0.1141713413621235	-40.27266997156442	17.64747531632866	-3.042876337268008	2.334600239061687	-417.2980469647979	-19.98130431757909	-13.90001273355839	0.3700123264797925	0.3712395813731454	-1.006262433035158	-0.3996698425865747	0.3312858338570901	-0.04579882525636264	1.376231979526426	-0.4216305680333089	-0.421630568033294	-0.1869388634589772	0.5884803704199577	-0.3911456816498437	0.4904350216766361	1.10079613514436e-07	5.14605540603494e-06	-1.221292392385415e-06	6.12861167369802e-07	4.995112337445062e-07	2.919579365399946e-06	5.630271663960972e-07
1.55	-0.3218888134266016	0.07363939482262055	0.8151719471568381	0.8817660812387011	-0.3637381074261248	-0.07143795360612026	-0.2973294691464889	0.7056636269306489	0.7056636269305275	-0.06750566155724316	-0.1666557458726829	0.2542887969938548	0.1398454838875766	0.5100738237199499	0.2862965158001253	0.4421568937658362	-2.332970668933623	0.009704564379329879	-0.6085035488868303	0.677874342887128	-2.231169259460702	-2.231169259460706	-0.3125988378995402	0.07781478274193905	-0.5843460148410645	-0.2044401268418705	-0.1150488945992854	0.07441603096411034	0.009277286519125356	-0.1053885169362769	-0.0457289104141609	-0.02569523472350777	0.1105305807655773	-40.16473785820325	17.94713555757679	-2.862586243039421	2.623896022167043	-414.666050752588	-20.0334427149327	-14.78361952489662	0.3311394297162299	0.3392124665665666	-1.053324170668253	-0.2347152055792569	0.3060887394019886	-0.1736316456635186	1.280061155573089	-0.2510554754314535	-0.2510554754299764	-0.1270745748039006	0.4218225760379555	-0.3450901770953499	0.4687081361219446	7.493630326519841e-08	5.479354737520272e-06	-8.488574229188716e-07	6.662228755053827e-07	4.427672545132118e-07	2.918143645564105e-06	5.448975054356854e-07
1.56	-0.3167729398991125	0.07651870426876431	0.8195399747365641	0.8584290093658725	-0.3636248636452732	-0.07752912365039141	-0.2904875081765632	0.6833430796260457	0.6833430796260814	-0.07063673162581016	-0.1658540086675078	0.2484294983670086	0.1378259827872649	0.512997237764792	0.2895067076282509	0.4313649611900846	-2.334087881930782	0.0129719899344053	-0.6097136424707049	0.6903984329073219	-2.232612260969599	-2.232612260969592	-0.3135086424946497	0.08251900240796603	-0.5874062747925448	-0.1993981650855856	-0.1107116684224907	0.07257031465420502	0.01020059129430677	-0.1028170831287644	-0.04564300463044389	-0.02688847048287978	0.1068898201687866	-40.05479246313076	18.24547100213777	-2.680974182200837	2.898073324777267	-411.9960449455599	-20.12031669919052	-15.66212443662847	0.2457987485105566	0.3019540085157457	-1.105997631721427	0.02747924109010902	0.3606973169421904	-0.02177159211816013	1.23293015183476	-0.02895771505176929	-0.02895771505176838	-0.05242155582935836	0.5717926722688225	-0.2605472413330309	0.5582248080491977	9.269455423946645e-08	5.623395238292488e-06	-1.234471943331639e-06	6.730993039024845e-07	5.302839574106977e-07	3.175907318635867e-06	5.965989993898105e-07
1.57	-0.3116307228442819	0.07942838499103151	0.8237976973908687	0.835090934227942	-0.3634793666833057	-0.08362871783241031	-0.2835242450544831	0.6610176720318377	0.6610176720318693	-0.07377763300118985	-0.1650045555680759	0.2425425684638559	0.1358569622705159	0.5153449368679835	0.2923675469776383	0.4201073746407692	-2.333172669484326	0.01613518578512857	-0.6101427194641553	0.7021114183198424	-2.232134718325005	-2.232134718325047	-0.3146127851391748	0.08737310075828164	-0.5898695586626148	-0.1943706552901971	-0.106320607375871	0.07045530555789913	0.01106334193293869	-0.1005914949531121	-0.04526497566306317	-0.02818519844256497	0.1032167951944503	-39.87864895972472	18.59244425644994	-2.524573140815029	3.138555315095603	-409.6514895603012	-20.2024962714475	-16.52492894384874	0.2141028649203142	0.2689838955814507	-1.146277953250892	0.1767574694672519	0.2952368488169466	-0.04331637574544068	1.119066757761461	0.1361280633097584	0.1361280633023502	-0.1299185511232147	0.4419029287628352	-0.2225107909046646	0.4798420974521543	1.765797567431158e-07	5.530862200673312e-06	-2.567648326093536e-06	6.218691326264885e-07	7.981265129691568e-07	3.75767023284213e-06	7.355894369871062e-07
1.58	-0.3064680593236819	0.0823648411062787	0.8279407164223381	0.811772654259091	-0.3633020165369346	-0.08973057090888206	-0.2764481352739133	0.638707043425905	0.6387070434258987	-0.07692767738970897	-0.1641066245825577	0.236634347355783	0.1339391824581504	0.517086530919034	0.2948617862242501	0.408424236623049	-2.330128848116124	0.01934262682302098	-0.6101654213690697	0.7129677646043994	-2.229656463316604	-2.229656463316695	-0.3153372450780729	0.0922145796025978	-0.5916645157751007	-0.1891500242080643	-0.1019295463290869	0.06834029646172587	0.01192609257089871	-0.0983659067773682	-0.04488694669562573	-0.02948192640203034	0.09954377022022685	-39.70364953838183	18.93408473993003	-2.360999659637209	3.356915102825617	-407.3325008462226	-20.38380010989079	-17.36592597367553	0.1245777380826337	0.2286339879605941	-1.19110792540241	0.4532010254393465	0.3695463543760366	0.05950342558892119	1.061602326242169	0.371184757709565	0.3711847577095627	0.02351498529615346	0.5692687710688965	-0.1268818898162292	0.5968490653981123	2.078331615249742e-07	5.627670389748026e-06	-3.207177546844274e-06	6.179253083034914e-07	9.142819047200848e-07	4.096979669008246e-06	8.136669650407473e-07
1.59	-0.301291050407804	0.08532434877467392	0.8319648744663495	0.7884955606952661	-0.3630924834698907	-0.09583127544107918	-0.2692678704357322	0.6164313682778196	0.6164313682778156	-0.08008297800324347	-0.1631610419663361	0.2307115350890431	0.1320744658422931	0.5182164111138463	0.296971857856288	0.3963473121591728	-2.324934923949144	0.0225407963770746	-0.6098496864018739	0.722920294362383	-2.225141056328741	-2.225141056328828	-0.3157472089870452	0.09691538379508031	-0.5927948468458016	-0.1838022079468443	-0.09754792241264411	0.06597363836757712	0.01274020038133602	-0.09632028452728998	-0.04441303214374302	-0.03092269557155056	0.09587790618133275	-39.5275449322313	19.34805670226482	-2.220345773789237	3.612622690381087	-405.3047713116096	-20.49899743589631	-18.17927343651634	0.09239418372789374	0.1921531211539286	-1.224839486844754	0.6057625532989699	0.2912112710530624	0.03722404564558552	0.9373420003346908	0.5421838970668227	0.5421838970673649	-0.07609933287213887	0.4220676795062013	-0.09044118876214678	0.5017628359512791	1.6765769797012e-07	5.981441672193004e-06	-2.905328476294205e-06	6.781558119881323e-07	8.245761455893747e-07	4.107245099262752e-06	8.090769729994337e-07
